<svg viewBox="0 0 512 512" xmlns="http://www.w3.org/2000/svg">
  <rect width="512" height="512" rx="112.64" fill="#0f172a"/>
  <g transform="translate(20.47999999999999 20.47999999999999) scale(0.92)"><path d="M 218 51.605 C 208.375 56.328, 197.800 61.454, 194.500 62.996 C 164.580 76.978, 126.827 96.319, 123.088 99.582 C 117.515 104.446, 111.538 113.636, 109.593 120.332 C 100.787 150.647, 50.004 350.115, 50.022 354.319 C 50.047 360.143, 52.542 366.419, 56.118 369.655 C 58.112 371.458, 126.945 418.256, 145.138 430.178 C 198.300 465.011, 267.341 473.293, 326.407 451.920 L 334.842 448.868 346.328 453.411 C 386.748 469.397, 428.879 473.500, 454.434 463.939 C 463.032 460.722, 462.563 467.069, 460.655 379.746 C 459.726 337.260, 458.689 294.175, 458.349 284 L 457.732 265.500 453.414 261.313 C 414.799 223.868, 358.466 225.886, 316.361 266.223 L 310.222 272.103 303.185 267.551 C 272.830 247.915, 222.953 249.373, 198.127 270.623 L 194 274.156 194 215.178 L 194 156.199 198.953 155.011 C 204.697 153.633, 203.311 152.958, 217.822 164.208 C 224.060 169.043, 230.049 173, 231.132 173 C 235.174 173, 239.128 169.485, 264.750 143.110 C 288.416 118.748, 290.997 115.764, 290.970 112.794 C 290.940 109.624, 246.772 46.372, 242.854 43.889 C 239.654 41.861, 234.767 43.378, 218 51.605" stroke="none" fill="#38bdf8" fill-rule="evenodd"/>
<path d="M 218 51.605 C 208.375 56.328, 197.800 61.454, 194.500 62.996 C 164.580 76.978, 126.827 96.319, 123.088 99.582 C 117.515 104.446, 111.538 113.636, 109.593 120.332 C 100.787 150.647, 50.004 350.115, 50.022 354.319 C 50.047 360.143, 52.542 366.419, 56.118 369.655 C 58.112 371.458, 126.945 418.256, 145.138 430.178 C 198.300 465.011, 267.341 473.293, 326.407 451.920 L 334.842 448.868 346.328 453.411 C 386.748 469.397, 428.879 473.500, 454.434 463.939 C 463.032 460.722, 462.563 467.069, 460.655 379.746 C 459.726 337.260, 458.689 294.175, 458.349 284 L 457.732 265.500 453.414 261.313 C 414.799 223.868, 358.466 225.886, 316.361 266.223 L 310.222 272.103 303.185 267.551 C 272.830 247.915, 222.953 249.373, 198.127 270.623 L 194 274.156 194 215.178 L 194 156.199 198.953 155.011 C 204.697 153.633, 203.311 152.958, 217.822 164.208 C 224.060 169.043, 230.049 173, 231.132 173 C 235.174 173, 239.128 169.485, 264.750 143.110 C 288.416 118.748, 290.997 115.764, 290.970 112.794 C 290.940 109.624, 246.772 46.372, 242.854 43.889 C 239.654 41.861, 234.767 43.378, 218 51.605 M 203 77.559 C 185.675 86.022, 163.864 96.671, 154.532 101.223 C 136.371 110.082, 132.299 112.925, 128.516 119.387 C 125.652 124.281, 66.687 350.490, 67.185 354.675 C 67.535 357.621, 147.455 412.580, 165.549 422.317 C 215.358 449.123, 266.814 454.067, 317 436.869 C 324.975 434.136, 332.471 431.653, 333.659 431.351 C 334.990 431.012, 340.646 432.766, 348.409 435.924 C 381.360 449.328, 417.389 455.186, 439 450.654 L 444.500 449.500 444.789 440.764 L 445.077 432.028 440.289 432.764 C 418.289 436.146, 386.347 431.447, 383.115 424.353 C 379.018 415.362, 385.773 410.454, 397.468 413.926 C 408.177 417.105, 419.505 418.008, 433.142 416.771 L 444.784 415.714 444.408 410.107 C 444.201 407.023, 443.571 379.300, 443.007 348.500 C 442.443 317.700, 441.724 287.980, 441.409 282.456 L 440.836 272.411 435.437 268.456 C 400.319 242.722, 362.819 246.119, 328.702 278.123 L 321.904 284.500 325.538 289.500 C 336.938 305.186, 342.639 323.172, 337.686 327.826 C 331.770 333.383, 326.485 330.310, 322.021 318.719 C 309.470 286.123, 287.596 271, 253 271 C 221.220 271, 200.481 283.607, 188.070 310.471 C 182.102 323.389, 178.695 326.359, 172.696 323.874 C 166.146 321.161, 166.256 315.184, 173.099 301.964 L 177 294.428 177 228.261 L 177 162.094 172.031 162.683 C 163.497 163.693, 158.843 158.073, 162.445 151.106 C 164.083 147.938, 180.055 142.043, 199.703 137.355 C 208.425 135.274, 208.217 135.195, 221.383 145.554 L 231.266 153.330 251.083 132.915 C 261.982 121.687, 270.922 112.163, 270.949 111.750 C 271.017 110.747, 235.770 61.976, 235.058 62.086 C 234.751 62.133, 220.325 69.096, 203 77.559 M 137.500 350.155 C 129.619 354.465, 131.432 361.236, 144.765 377.286 C 171.119 409.012, 212.319 425.725, 259 423.629 C 283.783 422.515, 291 420.143, 291 413.112 C 291 405.603, 286.446 403.780, 272.442 405.679 C 221.973 412.526, 174.184 393.752, 151.080 358.004 C 145.623 349.560, 142.202 347.583, 137.500 350.155" stroke="none" fill="#0f172a" fill-rule="evenodd"/></g>
</svg>